<?xml version="1.0" encoding="UTF-8"?>
<svg id="Calque_1" data-name="Calque 1" xmlns="http://www.w3.org/2000/svg" viewBox="0 0 463 461">
  <defs>
    <style>
      .cls-1 {
        fill: #fff;
        stroke: #000;
        stroke-width: 2px;
      }
    </style>
  </defs>
  <path d="m145.79,162.59l1-.1v-.03s0-.03,0-.03l-.99.15Zm-40.74-34.7l.59-.81-.81-.59-.59.81.81.59Zm-5.19,7.11l-.81-.59-.59.81.81.59.59-.81Zm37.16,28.61l.99-.11h0s-.99.11-.99.11Zm-3.92,5.36l.19.98h0s-.19-.98-.19-.98Zm-9.51-5.56l.59-.81-.81-.59-.59.81.81.59Zm-5.19,7.11l-.81-.59-.59.81.81.59.59-.81Zm16.44,7.05l.17.99h0s0,0,0,0l-.19-.98Zm8.93-4.97c2.32-3.18,3.36-6.57,3.01-10.12l-1.99.19c.29,2.99-.56,5.9-2.63,8.74l1.62,1.18Zm3-10.17c-.63-4.03-2.83-7.38-6.5-10.06l-1.18,1.62c3.31,2.41,5.17,5.33,5.71,8.76l1.98-.31Zm-6.5-10.06l-34.63-25.29-1.18,1.62,34.63,25.29,1.18-1.62Zm-36.03-25.07l-5.19,7.11,1.62,1.18,5.19-7.11-1.62-1.18Zm-4.97,8.51l34.63,25.28,1.18-1.61-34.63-25.29-1.18,1.62Zm34.63,25.28c1.49,1.08,2.04,1.98,2.12,2.64l1.99-.24c-.18-1.51-1.31-2.84-2.93-4.01l-1.18,1.61Zm2.12,2.64c.07.58-.16,1.39-.97,2.51l1.62,1.18c.95-1.3,1.49-2.62,1.34-3.92l-1.99.23Zm-.97,2.51c-.85,1.17-1.58,1.64-2.14,1.76l.39,1.96c1.29-.25,2.4-1.21,3.37-2.54l-1.62-1.18Zm-2.14,1.75c-.56.11-1.55-.14-3.11-1.28l-1.18,1.62c1.63,1.19,3.23,1.91,4.67,1.63l-.38-1.96Zm-3.11-1.28l-5.62-4.1-1.18,1.62,5.62,4.1,1.18-1.62Zm-7.02-3.89l-5.19,7.11,1.62,1.18,5.19-7.11-1.62-1.18Zm-4.97,8.51l5.62,4.1,1.18-1.62-5.62-4.1-1.18,1.62Zm5.62,4.1c3.75,2.74,7.63,3.83,11.59,3.13l-.35-1.97c-3.32.59-6.66-.29-10.06-2.77l-1.18,1.62Zm11.6,3.12c3.45-.66,6.36-2.69,8.74-5.95l-1.62-1.18c-2.15,2.94-4.65,4.62-7.5,5.17l.38,1.96Z"/>
  <path d="m173.66,139.06l.98.21h0s0-.01,0-.01l-.98-.2Zm-28.91-41.67l.16-.99h0s0,0,0,0l-.14.99Zm-15.25,10.58l-.98-.21h0s0,.01,0,.01l.98.2Zm28.91,41.67l-.16.99h0s0,0,0,0l.14-.99Zm-14.9-43.51l-.18.98h.03s.04.01.04.01l.11-.99Zm21.52,31.02l-.97-.25v.03s-.01.04-.01.04l.98.18Zm-5.39,3.74l-.14.99h0s.14-.99.14-.99Zm-21.52-31.03l-.98-.22h0s.98.22.98.22Zm30.35,38c3.32-2.3,5.42-5.17,6.16-8.59l-1.95-.43c-.62,2.84-2.36,5.3-5.35,7.38l1.14,1.64Zm6.17-8.61c.8-3.94-.2-7.85-2.85-11.66l-1.64,1.14c2.4,3.46,3.2,6.82,2.53,10.12l1.96.4Zm-2.85-11.66l-16.96-24.45-1.64,1.14,16.96,24.45,1.64-1.14Zm-16.96-24.45c-2.65-3.81-5.95-6.11-9.92-6.75l-.32,1.97c3.33.53,6.19,2.45,8.6,5.91l1.64-1.14Zm-9.94-6.75c-3.47-.5-6.89.46-10.21,2.76l1.14,1.64c2.99-2.08,5.9-2.84,8.78-2.43l.29-1.98Zm-10.21,2.76c-3.32,2.3-5.42,5.16-6.16,8.59l1.95.43c.62-2.84,2.36-5.3,5.35-7.38l-1.14-1.64Zm-6.17,8.61c-.8,3.94.2,7.85,2.85,11.66l1.64-1.14c-2.4-3.46-3.2-6.82-2.53-10.12l-1.96-.4Zm2.85,11.66l16.96,24.45,1.64-1.14-16.96-24.45-1.64,1.14Zm16.96,24.45c2.65,3.81,5.95,6.11,9.92,6.75l.32-1.98c-3.33-.53-6.2-2.45-8.6-5.91l-1.64,1.14Zm9.94,6.75c3.47.5,6.89-.46,10.21-2.76l-1.14-1.64c-2.99,2.08-5.9,2.84-8.78,2.43l-.29,1.98Zm-17.43-42.6c1.2-.83,2-1.01,2.5-.92l.36-1.97c-1.28-.23-2.65.31-3.99,1.24l1.14,1.64Zm2.57-.91c.6.06,1.46.61,2.55,2.18l1.64-1.14c-1.16-1.67-2.47-2.86-3.98-3.03l-.21,1.99Zm2.55,2.18l16.96,24.45,1.64-1.14-16.96-24.45-1.64,1.14Zm16.96,24.45c1.09,1.57,1.29,2.57,1.15,3.15l1.94.5c.38-1.47-.28-3.12-1.44-4.79l-1.64,1.14Zm1.13,3.22c-.09.5-.54,1.18-1.73,2.01l1.14,1.64c1.34-.93,2.33-2.02,2.56-3.3l-1.97-.36Zm-1.73,2.01c-1.14.79-1.96.99-2.53.91l-.28,1.98c1.29.18,2.63-.34,3.95-1.25l-1.14-1.64Zm-2.53.91c-.66-.1-1.54-.67-2.59-2.18l-1.64,1.14c1.14,1.64,2.44,2.8,3.94,3.02l.29-1.98Zm-2.59-2.18l-16.96-24.45-1.64,1.14,16.96,24.45,1.64-1.14Zm-16.96-24.45c-1.05-1.51-1.28-2.53-1.14-3.19l-1.96-.42c-.32,1.49.31,3.11,1.45,4.75l1.64-1.14Zm-1.14-3.18c.13-.57.61-1.27,1.74-2.05l-1.14-1.64c-1.32.92-2.27,1.99-2.55,3.26l1.95.43Z"/>
  <path d="m198.27,111.17l-1-.02v.15s.04.14.04.14l.96-.27Zm5.22,18.98l.26.96.96-.26-.26-.96-.96.26Zm-8.56,2.35l-.97.26.27.96.96-.27-.26-.96Zm-5.22-18.98l.96-.26-.04-.14-.08-.12-.85.53Zm-20.04-32.16l-.26-.96-1.29.36.71,1.14.85-.53Zm8.95-2.46l.85-.53-.39-.64-.72.2.26.96Zm11.03,17.79l-.85.53,1.76,2.84.09-3.35-1-.03Zm.54-20.97l-.27-.96-.72.2-.02.74,1,.03Zm8.95-2.46l1,.02.03-1.34-1.3.36.27.96Zm-1.83,38.17l5.22,18.98,1.93-.53-5.22-18.98-1.93.53Zm5.92,17.75l-8.56,2.35.53,1.93,8.56-2.35-.53-1.93Zm-7.33,3.05l-5.22-18.98-1.93.53,5.22,18.98,1.93-.53Zm-5.33-19.24l-20.04-32.16-1.7,1.06,20.04,32.16,1.7-1.06Zm-20.62-30.66l8.95-2.46-.53-1.93-8.95,2.46.53,1.93Zm7.83-2.9l11.03,17.79,1.7-1.05-11.03-17.79-1.7,1.05Zm12.88,17.29l.54-20.97-2-.05-.54,20.97,2,.05Zm-.2-20.03l8.95-2.46-.53-1.93-8.95,2.46.53,1.93Zm7.68-3.45l-.86,37.91,2,.04.86-37.9-2-.05Z"/>
  <path d="m233.38,80.15l.06-1-1-.06-.06,1,1,.06Zm-.79,14.06l-1-.06-.06,1,1,.06.06-1Zm9.9.56l1,.06.06-1-1-.06-.06,1Zm-.49,8.79l-.06,1,1,.06.06-1-1-.06Zm-9.9-.56l.06-1-1-.06-.06,1,1,.06Zm-.87,15.49l-1-.06-.06,1,1,.06.06-1Zm14.38.81l1,.06.06-1-1-.06-.06,1Zm-.5,8.79l-.06,1,1,.06.06-1-1-.06Zm-23.16-1.3l-1-.06-.06,1,1,.06.06-1Zm3.15-55.91l.06-1-1-.06-.06,1,1,.06Zm23.16,1.3l1,.06.06-1-1-.06-.06,1Zm-.49,8.79l-.06,1,1,.06.06-1-1-.06Zm-15.38-.86l-.79,14.06,2,.11.79-14.06-2-.11Zm.15,15.11l9.9.56.11-2-9.9-.56-.11,2Zm8.96-.5l-.49,8.79,2,.11.49-8.79-2-.11Zm.56,7.84l-9.9-.56-.11,2,9.9.56.11-2Zm-10.96.39l-.87,15.49,2,.11.87-15.5-2-.11Zm.07,16.55l14.38.81.11-2-14.38-.81-.11,2Zm13.43-.25l-.49,8.79,2,.11.49-8.79-2-.11Zm.56,7.84l-23.16-1.3-.11,2,23.16,1.3.11-2Zm-22.22-.25l3.15-55.91-2-.11-3.15,55.91,2,.11Zm2.09-54.97l23.16,1.3.11-2-23.16-1.3-.11,2Zm22.22.25l-.5,8.79,2,.11.49-8.79-2-.11Zm.56,7.84l-14.38-.81-.11,2,14.38.81.11-2Z"/>
  <path d="m275.85,135.56l.34.94h.03s.03-.02.03-.02l-.39-.92Zm23.76-47.95l.93.38.38-.93-.93-.38-.38.93Zm-8.15-3.31l.38-.93-.93-.38-.38.93.93.38Zm-18.73,42.99l.35.94h0s-.36-.94-.36-.94Zm-6.15-2.5l-.91.42h0s.9-.42.9-.42Zm16.58-43.86l.93.38.38-.93-.93-.38-.38.93Zm-8.15-3.31l.38-.93-.93-.38-.38.93.93.38Zm-16.35,50.95l-.91.41h0s0,.01,0,.01l.91-.42Zm6.99,7.45c3.65,1.48,7.19,1.66,10.55.46l-.67-1.88c-2.83,1.01-5.86.89-9.12-.43l-.75,1.85Zm10.6.44c3.75-1.59,6.48-4.54,8.18-8.75l-1.85-.75c-1.54,3.8-3.92,6.31-7.11,7.66l.78,1.84Zm8.18-8.75l16.11-39.74-1.85-.75-16.11,39.74,1.85.75Zm15.56-41.04l-8.15-3.31-.75,1.85,8.15,3.31.75-1.85Zm-9.46-2.76l-16.11,39.74,1.85.75,16.11-39.74-1.85-.75Zm-16.11,39.74c-.69,1.7-1.42,2.46-2.05,2.7l.71,1.87c1.42-.54,2.43-1.96,3.18-3.81l-1.85-.75Zm-2.04,2.7c-.54.2-1.39.18-2.67-.33l-.75,1.85c1.49.6,2.91.81,4.13.35l-.7-1.87Zm-2.67-.33c-1.34-.54-1.98-1.13-2.22-1.65l-1.81.85c.56,1.19,1.76,2.03,3.28,2.65l.75-1.85Zm-2.22-1.65c-.24-.52-.24-1.54.49-3.33l-1.85-.75c-.76,1.87-1.07,3.6-.44,4.93l1.81-.85Zm.49-3.33l16.11-39.74-1.85-.75-16.12,39.74,1.85.75Zm15.56-41.04l-8.15-3.31-.75,1.85,8.15,3.31.75-1.85Zm-9.46-2.76l-16.12,39.74,1.85.75,16.12-39.74-1.85-.75Zm-16.12,39.74c-1.74,4.3-1.86,8.33-.22,12l1.83-.82c-1.38-3.08-1.34-6.53.24-10.43l-1.85-.75Zm-.21,12.01c1.48,3.18,4.15,5.51,7.9,7.03l.75-1.85c-3.37-1.37-5.61-3.39-6.84-6.02l-1.81.84Z"/>
  <path d="m302.2,157.95l-.93-.37-.25.64.51.46.67-.74Zm6.51-16.46l.93.37.98-2.48-2.37,1.23.46.89Zm-15.69,8.12l-.67.74.52.47.62-.32-.46-.89Zm-6.93-6.29l-.46-.89-1.28.66,1.07.97.67-.74Zm26.47-13.68l.46.89.33-.17.14-.35-.93-.37Zm11.18-27.78l.67-.74-1.06-.97-.54,1.33.93.37Zm6.93,6.29l.93.37.26-.64-.52-.47-.67.74Zm-6.57,16.4l-.93-.37-1,2.5,2.39-1.24-.46-.89Zm15.69-8.12l.67-.74-.52-.47-.62.32.46.89Zm6.99,6.35l.46.89,1.28-.66-1.07-.97-.67.74Zm-26.63,13.74l-.46-.89-.33.17-.14.35.93.37Zm-11.01,27.71l-.67.74,1.07.97.53-1.34-.93-.37Zm-6-5.92l6.51-16.46-1.86-.74-6.51,16.46,1.86.74Zm5.12-17.71l-15.69,8.12.92,1.78,15.69-8.12-.92-1.78Zm-14.56,8.27l-6.93-6.29-1.35,1.48,6.93,6.29,1.35-1.48Zm-7.14-4.66l26.47-13.68-.92-1.78-26.47,13.68.92,1.78Zm26.94-14.2l11.18-27.78-1.85-.75-11.18,27.78,1.85.75Zm9.58-27.41l6.93,6.29,1.34-1.48-6.93-6.29-1.35,1.48Zm6.67,5.18l-6.57,16.4,1.86.74,6.57-16.4-1.86-.74Zm-5.18,17.66l15.69-8.12-.92-1.78-15.69,8.12.92,1.78Zm14.56-8.27l6.99,6.35,1.35-1.48-6.99-6.35-1.35,1.48Zm7.2,4.72l-26.64,13.75.92,1.78,26.64-13.74-.92-1.78Zm-27.11,14.26l-11.01,27.72,1.86.74,11.01-27.71-1.86-.74Zm-9.41,27.35l-6.93-6.29-1.34,1.48,6.93,6.29,1.34-1.48Z"/>
  <path d="m342.89,207.08l.39.92.77-.32-.18-.82-.98.22Zm-2.18-9.84l.98-.22-.18-.82-.84.03.04,1Zm-9.02.35l-.98.22.18.82.83-.03-.04-1Zm-1.94-8.75l-.02-1-1.22.02.26,1.19.98-.22Zm57.1-1.16l.98-.22-.18-.8-.82.02.02,1Zm1.9,8.59l.4.92.75-.33-.18-.8-.98.22Zm-52.26,23.03l-.98.22.26,1.19,1.12-.49-.4-.92Zm-1.94-8.75l-.39-.92-.77.32.18.82.98-.22Zm16.59-6.86l-.98.22.26,1.16,1.1-.45-.38-.92Zm18.85-7.77l.38.92-.43-1.92.05,1Zm-20.37.9l-.04-1-1.19.05.26,1.16.98-.22Zm-5.77,10.04l-2.18-9.84-1.95.43,2.18,9.84,1.95-.43Zm-3.19-10.63l-9.02.36.08,2,9.02-.36-.08-2Zm-8,1.14l-1.93-8.75-1.95.43,1.93,8.75,1.95-.43Zm-2.89-7.53l57.1-1.16-.04-2-57.1,1.16.04,2Zm56.1-1.94l1.9,8.59,1.95-.43-1.9-8.59-1.95.43Zm2.47,7.46l-52.26,23.03.81,1.83,52.26-23.03-.81-1.83Zm-50.88,23.73l-1.94-8.75-1.95.43,1.93,8.75,1.95-.43Zm-2.53-7.61l8.33-3.48-.77-1.85-8.33,3.48.77,1.85Zm16.58-6.86l18.85-7.77-.76-1.85-18.85,7.77.76,1.85Zm18.42-9.7l-20.37.9.09,2,20.37-.9-.09-2Zm-21.3,2.12l1.52,6.87,1.95-.43-1.52-6.87-1.95.43Z"/>
  <path d="m333.12,254.62l-.99-.14-.14.99.99.14.14-.99Zm.71-5.07l-.3-.96-.6.19-.09.63.99.14Zm29.99-9.38l.3.95-.16-1.95-.14.99Zm-28.13-3.93l-.99-.14-.14.99.99.14.14-.99Zm1.22-8.72l.14-.99-.99-.14-.14.99.99.14Zm55.46,7.75l.99.14.14-.99-.99-.14-.14.99Zm-.71,5.07l.3.95.6-.19.09-.63-.99-.14Zm-29.91,9.39l-.3-.95.16,1.94.14-.99Zm28.05,3.92l.99.14.14-.99-.99-.14-.14.99Zm-1.22,8.71l-.14.99.99.14.14-.99-.99-.14Zm-54.47-7.61l.71-5.07-1.98-.28-.71,5.07,1.98.28Zm.02-4.25l29.99-9.38-.6-1.91-29.99,9.38.6,1.91Zm29.83-11.33l-28.13-3.93-.28,1.98,28.13,3.93.28-1.98Zm-27.27-2.8l1.22-8.72-1.98-.28-1.22,8.71,1.98.28Zm.09-7.86l55.46,7.75.28-1.98-55.46-7.75-.28,1.98Zm54.61,6.62l-.71,5.07,1.98.28.71-5.07-1.98-.28Zm-.02,4.26l-29.91,9.39.6,1.91,29.91-9.39-.6-1.91Zm-29.75,11.34l28.05,3.92.28-1.98-28.05-3.92-.28,1.98Zm27.2,2.79l-1.22,8.71,1.98.28,1.22-8.72-1.98-.28Zm-.09,7.86l-55.46-7.75-.28,1.98,55.46,7.75.28-1.98Z"/>
  <path d="m317.35,288.51l-.88-.48-.47.88.88.48.48-.88Zm2.43-4.51l.05-1-.63-.03-.3.56.88.48Zm31.38,1.67l-.05,1,.53-1.88-.47.88Zm-24.99-13.5l-.88-.48-.48.88.88.48.48-.88Zm4.18-7.74l.48-.88-.88-.48-.48.88.88.47Zm49.27,26.62l.88.48.48-.88-.88-.48-.48.88Zm-2.43,4.51l-.05,1,.63.03.3-.56-.88-.47Zm-31.3-1.64l.05-1-.53,1.88.48-.88Zm24.92,13.46l.88.48.48-.88-.88-.48-.48.88Zm-4.18,7.74l-.47.88.88.48.48-.88-.88-.48Zm-48.39-26.14l2.43-4.51-1.76-.95-2.43,4.51,1.76.95Zm1.5-3.98l31.38,1.67.11-2-31.38-1.67-.11,2Zm31.9-.21l-24.99-13.5-.95,1.76,24.99,13.5.95-1.76Zm-24.58-12.14l4.18-7.74-1.76-.95-4.18,7.74,1.76.95Zm2.83-7.34l49.27,26.62.95-1.76-49.27-26.61-.95,1.76Zm48.87,25.26l-2.43,4.51,1.76.95,2.43-4.5-1.76-.95Zm-1.5,3.98l-31.3-1.63-.11,2,31.3,1.64.1-2Zm-31.83.24l24.92,13.46.95-1.76-24.92-13.46-.95,1.76Zm24.51,12.1l-4.18,7.74,1.76.95,4.18-7.74-1.76-.95Zm-2.83,7.34l-49.27-26.62-.95,1.76,49.27,26.61.95-1.76Z"/>
  <path d="m344.05,342.2l-.7.72.72.7.69-.72-.72-.69Zm6.12-6.32l.72.7.7-.72-.72-.7-.7.72Zm-40.22-38.96l.7-.72-.72-.69-.7.72.72.7Zm-6.12,6.32l-.72-.7-.7.72.72.7.7-.72Zm40.94,39.66l6.12-6.32-1.44-1.39-6.12,6.32,1.44,1.39Zm6.1-7.73l-40.22-38.96-1.39,1.44,40.22,38.96,1.39-1.44Zm-41.64-38.94l-6.12,6.32,1.44,1.39,6.12-6.32-1.44-1.39Zm-6.1,7.73l40.22,38.96,1.39-1.44-40.22-38.96-1.39,1.44Z"/>
  <path d="m307.57,369.27l.51.86.72-.43-.29-.79-.94.35Zm-7.72,4.54l-.95.33.4,1.15,1.05-.62-.51-.86Zm-18.74-53.95l-.51-.86-.71.42.27.77.94-.33Zm7.59-4.46l.75-.67-.55-.61-.71.42.51.86Zm38.04,42.59l.51.86,1.05-.62-.81-.91-.75.67Zm-7.72,4.54l-.76.65.54.64.72-.42-.51-.86Zm-24.91-29.25l.76-.65-1.7,1,.94-.35Zm12.95,35.12l-7.72,4.54,1.01,1.72,7.72-4.54-1.01-1.72Zm-6.27,5.08l-18.74-53.95-1.89.66,18.73,53.95,1.89-.66Zm-19.17-52.76l7.58-4.46-1.01-1.72-7.58,4.46,1.01,1.72Zm6.33-4.66l38.04,42.59,1.49-1.33-38.04-42.59-1.49,1.33Zm38.28,41.06l-7.72,4.54,1.01,1.72,7.72-4.54-1.01-1.72Zm-6.45,4.76l-24.91-29.25-1.52,1.3,24.91,29.25,1.52-1.3Zm-26.61-28.25l13.46,35.98,1.87-.7-13.46-35.98-1.87.7Z"/>
  <path d="m264.83,375.93l.2.98.98-.2-.2-.98-.98.2Zm-2.83-13.79l.98-.2-.2-.98-.98.2.2.98Zm-9.72,2l-.98.2.2.98.98-.2-.2-.98Zm-1.77-8.62l-.2-.98-.98.2.2.98.98-.2Zm9.72-1.99l.2.98.98-.2-.2-.98-.98.2Zm-3.12-15.2l.98-.2-.2-.98-.98.2.2.98Zm-14.1,2.9l-.98.2.2.98.98-.2-.2-.98Zm-1.77-8.62l-.2-.98-.98.2.2.98.98-.2Zm22.73-4.67l.98-.2-.2-.98-.98.2.2.98Zm11.27,54.86l.2.98.98-.2-.2-.98-.98.2Zm-22.73,4.67l-.98.2.2.98.98-.2-.2-.98Zm-1.77-8.62l-.2-.98-.98.2.2.98.98-.2Zm15.08-3.1l-2.83-13.79-1.96.4,2.83,13.79,1.96-.4Zm-4.01-14.57l-9.72,2,.4,1.96,9.72-2-.4-1.96Zm-8.54,2.77l-1.77-8.62-1.96.4,1.77,8.62,1.96-.4Zm-2.55-7.44l9.72-2-.4-1.96-9.72,2,.4,1.96Zm10.49-3.18l-3.12-15.2-1.96.4,3.12,15.2,1.96-.4Zm-4.3-15.98l-14.11,2.9.4,1.96,14.11-2.9-.4-1.96Zm-12.93,3.68l-1.77-8.62-1.96.4,1.77,8.62,1.96-.4Zm-2.55-7.44l22.73-4.67-.4-1.96-22.73,4.67.4,1.96Zm21.54-5.45l11.27,54.85,1.96-.4-11.27-54.86-1.96.4Zm12.05,53.67l-22.73,4.67.4,1.96,22.73-4.67-.4-1.96Zm-21.55,5.45l-1.77-8.62-1.96.4,1.77,8.62,1.96-.4Zm-2.55-7.44l14.1-2.9-.4-1.96-14.1,2.9.4,1.96Z"/>
  <path d="m205.75,330.14l.12-.99-1.21-.15.1,1.22,1-.08Zm8.89,1.09l1-.08-.06-.82-.81-.1-.12.99Zm1.79,22.87l-1,.08.06.82.81.1.12-.99Zm3.97.49l-.12.99.99.12.12-.99-.99-.12Zm2.73-22.31l.12-.99-.99-.12-.12.99.99.12Zm8.73,1.07l.99.12.12-.99-.99-.12-.12.99Zm-6.81,55.59l-.12.99.99.12.12-.99-.99-.12Zm-21.98-6.08l.77-.64h0s-.76.64-.76.64Zm3.27-26.68l.58.81h.02s.02-.02.02-.02l-.62-.79Zm1.4-.88l.45.89.6-.3-.05-.67-1,.08Zm2.07,21.93l-.79.62v.02s.03.01.03.01l.76-.65Zm7.58,1.9l-.12.99.99.12.12-.99-.99-.12Zm1.94-15.8l.99.12.12-.99-.99-.12-.12.99Zm-7.82,0l-.58-.81h0s.59.81.59.81Zm-5.89-32.19l8.89,1.09.24-1.99-8.89-1.09-.24,1.99Zm8.02.17l1.79,22.87,1.99-.16-1.79-22.87-1.99.16Zm2.67,23.78l3.97.49.24-1.99-3.97-.49-.24,1.99Zm5.08-.38l2.73-22.31-1.99-.24-2.73,22.31,1.99.24Zm1.62-21.44l8.74,1.07.24-1.99-8.74-1.07-.24,1.98Zm7.86-.04l-6.81,55.58,1.99.24,6.81-55.58-1.99-.24Zm-5.7,54.71l-13.18-1.61-.24,1.98,13.18,1.61.24-1.98Zm-13.18-1.61c-3.55-.43-6.24-1.82-8.16-4.11l-1.53,1.29c2.3,2.74,5.48,4.33,9.45,4.81l.24-1.98Zm-8.16-4.12c-2.12-2.5-2.99-5.8-2.47-10.04l-1.99-.24c-.57,4.65.37,8.56,2.94,11.58l1.52-1.3Zm-2.47-10.04l.73-5.96-1.99-.24-.73,5.95,1.99.24Zm.73-5.96c.53-4.3,2.17-7.32,4.83-9.23l-1.17-1.62c-3.23,2.31-5.08,5.9-5.65,10.61l1.99.24Zm4.87-9.25c.36-.28.77-.54,1.23-.77l-.9-1.79c-.57.29-1.09.61-1.56.98l1.23,1.57Zm1.78-1.74l-2-25.15-1.99.16,2,25.15,1.99-.16Zm-.63,17.77c-.24,1.95-.03,3.65.91,4.85l1.58-1.23c-.46-.58-.71-1.63-.5-3.38l-1.99-.24Zm.93,4.88c.85,1,2.19,1.5,3.78,1.7l.24-1.99c-1.37-.17-2.12-.56-2.5-1.01l-1.52,1.29Zm3.78,1.7l4.45.54.24-1.98-4.45-.55-.24,1.99Zm5.56-.33l1.94-15.8-1.99-.24-1.94,15.8,1.99.24Zm1.06-16.92l-4.45-.54-.24,1.99,4.45.54.24-1.99Zm-4.45-.54c-1.59-.2-3.02-.03-4.08.73l1.17,1.62c.47-.34,1.3-.54,2.67-.37l.24-1.99Zm-4.08.74c-1.23.89-1.84,2.52-2.08,4.51l1.99.24c.22-1.82.73-2.74,1.27-3.14l-1.18-1.62Zm-2.08,4.51l-.73,5.96,1.99.24.73-5.96-1.99-.24Z"/>
  <path d="m176.53,320.53l-.29-.96h0s0,0,0,0l.3.95Zm-10.14,25.05l.93-.37h0s-.93.37-.93.37Zm3.55,5.84l.82-.57h0s-.81.57-.81.57Zm1.96,3.1l.93-.38v-.02s-.02-.02-.02-.02l-.9.43Zm-3.56,11.26l.29.96h0s-.29-.96-.29-.96Zm-5.89-2.89l.95-.32v-.03s-.03-.03-.03-.03l-.92.39Zm2.83-8.5l.9.44.44-.9-.9-.44-.44.9Zm-7.9-3.87l.44-.9-.9-.44-.44.9.9.44Zm-3.17,15.55l-.94.34h0s0,.01,0,.01l.93-.36Zm16.67,8.17l.29.96h0s0,0,0,0l-.3-.95Zm9.15-23.04l.93-.38h0s0-.01,0-.01l-.92.39Zm-3.41-5.59l-.82.57h0s0,.02,0,.02l.81-.59Zm-2.1-3.35l-.93.36h0s0,.02,0,.02l.92-.39Zm4.54-13.27l.26.97h.03s.03-.02.03-.02l-.32-.95Zm5.89,2.89l.93-.36h0s-.93.36-.93.36Zm-3.89,10.66l-.9-.44-.44.9.9.44.44-.9Zm7.9,3.87l-.44.9.9.44.44-.9-.9-.44Zm4.22-17.71l.94-.34h0s0-.01,0-.01l-.93.36Zm-6.45-7.93c-3.63-1.78-7.15-2.21-10.51-1.2l.58,1.91c2.78-.84,5.78-.52,9.05,1.08l.88-1.8Zm-10.52-1.19c-3.83,1.22-6.75,4-8.8,8.16l1.8.88c1.85-3.78,4.4-6.11,7.61-7.14l-.61-1.9Zm-8.8,8.16l-1.55,3.16,1.8.88,1.55-3.16-1.8-.88Zm-1.55,3.16c-2.38,4.86-2.51,9.91-.41,15.06l1.85-.76c-1.89-4.64-1.77-9.09.36-13.42l-1.8-.88Zm-.42,15.06c.58,1.45,1.83,3.48,3.67,6.05l1.63-1.16c-1.83-2.55-2.95-4.42-3.44-5.63l-1.86.75Zm3.66,6.04c1.02,1.45,1.62,2.42,1.87,2.95l1.81-.85c-.33-.71-1.03-1.8-2.04-3.24l-1.64,1.15Zm1.85,2.9c.9,2.21.85,4.24-.1,6.16l1.8.88c1.21-2.48,1.25-5.11.15-7.8l-1.85.76Zm-.1,6.16l-.6,1.22,1.8.88.6-1.22-1.8-.88Zm-.6,1.22c-.81,1.65-1.59,2.35-2.23,2.55l.58,1.91c1.45-.44,2.56-1.78,3.44-3.58l-1.8-.88Zm-2.22,2.54c-.56.17-1.4.09-2.64-.52l-.88,1.8c1.44.71,2.84,1.01,4.09.64l-.57-1.92Zm-2.64-.52c-1.31-.64-1.85-1.25-2.02-1.73l-1.89.65c.42,1.24,1.56,2.16,3.03,2.88l.88-1.8Zm-2.04-1.8c-.23-.55-.18-1.57.66-3.29l-1.8-.88c-.9,1.83-1.3,3.55-.71,4.95l1.84-.78Zm.66-3.29l2.15-4.38-1.8-.88-2.15,4.38,1.8.88Zm1.69-5.72l-7.9-3.87-.88,1.8,7.9,3.87.88-1.8Zm-9.24-3.41l-2.15,4.38,1.8.88,2.15-4.38-1.8-.88Zm-2.15,4.38c-2.04,4.17-2.44,8.18-1.06,11.95l1.88-.69c-1.16-3.17-.88-6.6.98-10.39l-1.8-.88Zm-1.05,11.97c1.25,3.28,3.76,5.79,7.38,7.57l.88-1.8c-3.27-1.6-5.36-3.77-6.4-6.49l-1.87.71Zm7.38,7.57c3.63,1.78,7.15,2.21,10.51,1.2l-.58-1.91c-2.78.84-5.78.52-9.05-1.08l-.88,1.8Zm10.52,1.19c3.83-1.23,6.75-4,8.8-8.16l-1.8-.88c-1.85,3.78-4.4,6.11-7.61,7.14l.61,1.9Zm8.8-8.16l.6-1.22-1.8-.88-.6,1.22,1.8.88Zm.6-1.22c1.16-2.38,1.78-4.85,1.83-7.41l-2-.04c-.05,2.26-.59,4.45-1.63,6.57l1.8.88Zm1.83-7.41c.05-2.56-.43-5.08-1.46-7.58l-1.85.76c.93,2.26,1.36,4.52,1.31,6.78l2,.04Zm-1.46-7.59c-.65-1.53-1.84-3.46-3.52-5.78l-1.62,1.17c1.65,2.28,2.74,4.07,3.3,5.39l1.84-.78Zm-3.51-5.77c-1.2-1.73-1.83-2.76-2-3.16l-1.85.77c.27.64,1.04,1.85,2.2,3.53l1.64-1.14Zm-1.99-3.14c-.88-2.26-.82-4.32.12-6.25l-1.8-.88c-1.21,2.48-1.26,5.12-.19,7.85l1.86-.73Zm.12-6.25l1.55-3.16-1.8-.88-1.55,3.16,1.8.88Zm1.55-3.16c.84-1.72,1.62-2.38,2.2-2.54l-.51-1.93c-1.47.39-2.59,1.77-3.48,3.59l1.8.88Zm2.26-2.56c.48-.16,1.29-.11,2.6.53l.88-1.8c-1.47-.72-2.9-1.05-4.13-.63l.65,1.89Zm2.6.53c1.24.61,1.82,1.23,2.03,1.77l1.87-.72c-.47-1.22-1.57-2.14-3.02-2.84l-.88,1.8Zm2.03,1.76c.24.62.16,1.67-.65,3.32l1.8.88c.88-1.8,1.26-3.5.72-4.92l-1.87.71Zm-.65,3.32l-3.2,6.54,1.8.88,3.2-6.54-1.8-.88Zm-2.74,7.88l7.9,3.87.88-1.8-7.9-3.87-.88,1.8Zm9.24,3.41l3.2-6.54-1.8-.88-3.2,6.54,1.8.88Zm3.2-6.54c2.04-4.17,2.44-8.18,1.06-11.95l-1.88.69c1.16,3.17.88,6.61-.98,10.39l1.8.88Zm1.05-11.97c-1.25-3.28-3.76-5.79-7.38-7.57l-.88,1.8c3.27,1.6,5.36,3.77,6.4,6.49l1.87-.71Z"/>
  <path d="m147.12,304.25l-.81-.58-.49.68.58.6.72-.7Zm7.04,7.22l-.72.7.58.6.69-.47-.56-.83Zm7.48-5.05l.72-.7-.58-.6-.69.47.56.83Zm6.25,6.42l.54.84,1.02-.66-.85-.87-.72.7Zm-47.92,31.06l-.72.7.57.59.69-.45-.54-.84Zm-6.14-6.3l-.82-.57-.46.68.57.59.72-.7Zm32.29-47.1l.72-.7-.85-.87-.69,1.01.83.57Zm6.25,6.42l.81.58.49-.68-.58-.6-.72.7Zm-10.49,14.57l.72-.7-.83-.85-.7.97.81.58Zm-11.93,16.54l-.81-.58,1.38,1.41-.56-.83Zm16.84-11.49l.56.83.98-.67-.83-.85-.72.7Zm-.39-11.58l7.03,7.22,1.43-1.4-7.03-7.22-1.43,1.39Zm8.31,7.35l7.48-5.05-1.12-1.66-7.48,5.05,1.12,1.66Zm6.2-5.18l6.25,6.42,1.43-1.39-6.25-6.42-1.43,1.39Zm6.43,4.88l-47.92,31.06,1.09,1.68,47.92-31.06-1.09-1.68Zm-46.66,31.2l-6.14-6.3-1.43,1.4,6.14,6.3,1.43-1.39Zm-6.03-5.04l32.29-47.1-1.65-1.13-32.29,47.1,1.65,1.13Zm30.75-46.97l6.25,6.42,1.43-1.4-6.25-6.42-1.43,1.4Zm6.15,5.14l-5.24,7.34,1.63,1.16,5.24-7.34-1.63-1.16Zm-10.48,14.57l-11.93,16.54,1.62,1.17,11.93-16.54-1.62-1.17Zm-10.55,17.95l16.84-11.49-1.13-1.65-16.84,11.49,1.13,1.65Zm16.99-13.02l-4.91-5.04-1.43,1.4,4.91,5.04,1.43-1.4Z"/>
  <path d="m88.3,301.39l-.48-.88-.88.48.48.88.88-.48Zm4.21,7.73l-.88.48.48.88.88-.48-.48-.88Zm49.19-26.76l.48.88.88-.48-.48-.88-.88.48Zm-4.21-7.73l.88-.48-.48-.88-.88.48.48.88Zm-50.07,27.24l4.21,7.73,1.76-.96-4.21-7.73-1.76.96Zm5.56,8.13l49.19-26.76-.96-1.76-49.19,26.76.96,1.76Zm49.59-28.12l-4.21-7.73-1.76.96,4.21,7.73,1.76-.96Zm-5.56-8.13l-49.19,26.76.96,1.76,49.19-26.76-.96-1.76Z"/>
  <path d="m126.38,239.54l.97-.23-.28-1.19-1.11.51.42.91Zm2.07,8.72l.42.91.74-.34-.19-.8-.97.23Zm-20.82,9.63l-.42-.91-.74.34.19.8.97-.23Zm.92,3.89l-.97.23.23.97.97-.23-.23-.97Zm21.87-5.19l.97-.23-.23-.97-.97.23.23.97Zm2.03,8.56l.23.97.97-.23-.23-.97-.97.23Zm-54.48,12.94l-.97.23.23.97.97-.23-.23-.97Zm-1.94-22.73l.87.5h0s-.87-.5-.87-.5Zm26.15-6.21l-.56.83h.02s.02.02.02.02l.53-.85Zm1.31,1.01l-.68.73.49.46.61-.28-.42-.91Zm-19.85,9.56l-.85-.52v.02s-.02.02-.02.02l.87.49Zm.86,7.77l-.97.23.23.97.97-.23-.23-.97Zm15.49-3.68l.23.97.97-.23-.23-.97-.97.23Zm-2.73-7.33l.56-.83h0s-.55.83-.55.83Zm28.14-16.71l2.07,8.72,1.95-.46-2.07-8.72-1.95.46Zm2.62,7.58l-20.82,9.63.84,1.82,20.82-9.63-.84-1.82Zm-21.37,10.77l.92,3.89,1.95-.46-.92-3.89-1.95.46Zm2.13,4.63l21.87-5.19-.46-1.95-21.87,5.19.46,1.95Zm20.67-5.94l2.03,8.56,1.95-.46-2.03-8.56-1.95.46Zm2.78,7.36l-54.48,12.94.46,1.95,54.48-12.94-.46-1.95Zm-53.28,13.68l-3.07-12.92-1.95.46,3.07,12.92,1.95-.46Zm-3.07-12.92c-.83-3.48-.46-6.48,1.02-9.08l-1.74-.99c-1.77,3.11-2.15,6.64-1.23,10.53l1.95-.46Zm1.02-9.09c1.6-2.86,4.4-4.82,8.55-5.81l-.46-1.95c-4.56,1.08-7.9,3.32-9.84,6.78l1.74.98Zm8.55-5.81l5.84-1.39-.46-1.95-5.84,1.39.46,1.95Zm5.84-1.39c4.21-1,7.61-.51,10.33,1.33l1.12-1.66c-3.29-2.22-7.3-2.71-11.91-1.62l.46,1.95Zm10.36,1.35c.39.24.77.53,1.15.88l1.36-1.46c-.47-.43-.95-.81-1.46-1.12l-1.05,1.7Zm2.25,1.06l22.89-10.62-.84-1.82-22.89,10.62.84,1.82Zm-16.88,5.59c-1.92.45-3.44,1.24-4.23,2.54l1.7,1.05c.39-.63,1.28-1.24,2.99-1.64l-.46-1.95Zm-4.26,2.57c-.64,1.14-.65,2.57-.28,4.13l1.95-.46c-.32-1.35-.21-2.19.07-2.69l-1.74-.98Zm-.28,4.13l1.04,4.36,1.95-.46-1.04-4.36-1.95.46Zm2.24,5.1l15.49-3.68-.46-1.95-15.49,3.68.46,1.95Zm16.23-4.88l-1.03-4.36-1.95.46,1.04,4.36,1.95-.46Zm-1.03-4.36c-.37-1.56-1.02-2.84-2.11-3.57l-1.12,1.66c.48.32.96,1.03,1.28,2.37l1.95-.46Zm-2.11-3.57c-1.27-.84-3.01-.85-4.95-.38l.46,1.95c1.79-.43,2.83-.27,3.38.1l1.11-1.67Zm-4.95-.38l-5.84,1.39.46,1.95,5.84-1.39-.46-1.95Z"/>
  <g>
    <path class="cls-1" d="m156.38,138.29c1.09,1.58,2.18,2.45,3.27,2.6.93.13,2.02-.23,3.24-1.08,1.27-.88,1.99-1.77,2.15-2.66.26-1.03-.17-2.35-1.29-3.97l-16.96-24.45c-1.12-1.62-2.21-2.49-3.27-2.6-.89-.16-1.97.2-3.24,1.08-1.23.85-1.94,1.74-2.15,2.66-.23,1.07.2,2.39,1.29,3.97l16.96,24.45Z"/>
    <path class="cls-1" d="m97.26,256.48c-.91-.61-2.3-.69-4.17-.24l-5.84,1.39c-1.82.43-3.02,1.13-3.61,2.09-.46.82-.52,1.96-.18,3.41l1.04,4.36,15.49-3.68-1.04-4.36c-.35-1.45-.91-2.44-1.69-2.97Z"/>
    <path class="cls-1" d="m211.52,363.33c-.89.64-1.44,1.92-1.68,3.83l-.73,5.95c-.23,1.85,0,3.23.71,4.12.61.72,1.66,1.17,3.14,1.35l4.45.54,1.94-15.8-4.45-.54c-1.48-.18-2.61,0-3.37.55Z"/>
    <polygon class="cls-1" points="129.96 328.02 146.79 316.52 141.88 311.48 129.96 328.02"/>
    <path class="cls-1" d="m231,30.89C120.55,30.89,31,120.65,31,231.39s89.55,200.5,200,200.5,200-89.77,200-200.5S341.46,30.89,231,30.89Zm155.86,156.79l1.9,8.59-52.26,23.03-1.93-8.75,8.33-3.48-2.18-9.84-9.02.36-1.94-8.75,57.1-1.16Zm-63.12-85.82l6.93,6.29-6.57,16.4,15.69-8.12,6.99,6.35-26.63,13.74-11.01,27.72-6.93-6.29,6.51-16.46-15.69,8.12-6.93-6.29,26.47-13.68,11.18-27.78Zm-98.65-30.99l23.16,1.3-.49,8.79-14.38-.81-.79,14.06,9.9.56-.49,8.79-9.91-.56-.87,15.49,14.38.81-.49,8.79-23.16-1.3,3.15-55.91Zm-95.58,37.09c.68-3.14,2.6-5.8,5.76-7.98,3.15-2.19,6.32-3.05,9.49-2.59,3.65.58,6.74,2.69,9.26,6.33l16.96,24.45c2.52,3.64,3.42,7.27,2.69,10.89-.68,3.14-2.6,5.8-5.76,7.99-3.15,2.19-6.32,3.05-9.49,2.59-3.65-.58-6.74-2.69-9.26-6.33l-16.96-24.45c-2.52-3.64-3.42-7.27-2.69-10.89Zm-24.45,19.93l34.63,25.29c3.49,2.55,5.52,5.68,6.11,9.41.32,3.27-.62,6.41-2.82,9.43-2.26,3.1-4.97,4.95-8.12,5.56-3.64.64-7.25-.34-10.82-2.95l-5.62-4.1,5.19-7.11,5.62,4.1c1.59,1.16,2.89,1.65,3.89,1.45.93-.18,1.84-.9,2.76-2.15.88-1.21,1.27-2.28,1.16-3.21-.13-1.09-.97-2.2-2.52-3.33l-34.63-25.29,5.19-7.11Zm-32.85,74.06l8.76.8-1.31,14.34,14.02,1.29.9-9.88,8.76.8-.91,9.88,15.46,1.42,1.31-14.34,8.76.8-2.12,23.1-55.77-5.11,2.12-23.1Zm2.71,63.21c-.87-3.68-.5-6.95,1.12-9.8,1.77-3.16,4.84-5.26,9.19-6.3l5.84-1.39c4.41-1.05,8.12-.56,11.12,1.47.45.28.89.61,1.31,1.01l22.89-10.62,2.07,8.72-20.82,9.63.92,3.89,21.87-5.19,2.03,8.56-54.48,12.94-3.07-12.92Zm13.39,36.22l49.19-26.76,4.21,7.73-49.19,26.76-4.21-7.73Zm25.53,36.21l32.29-47.1,6.25,6.42-5.24,7.34,7.04,7.22,7.48-5.05,6.25,6.42-47.92,31.06-6.14-6.3Zm78.36,2.27l-3.2,6.54-7.9-3.87,3.2-6.54c.85-1.72,1.07-3.1.68-4.12-.34-.88-1.18-1.65-2.52-2.31-1.39-.68-2.51-.87-3.37-.58-1.02.27-1.97,1.29-2.84,3.07l-1.55,3.16c-1.08,2.2-1.13,4.55-.16,7.05.22.52.92,1.64,2.1,3.35,1.66,2.3,2.8,4.16,3.41,5.59.97,2.38,1.43,4.77,1.38,7.18-.05,2.41-.63,4.74-1.73,6.99l-.6,1.22c-1.95,3.97-4.68,6.53-8.2,7.65-3.07.93-6.33.55-9.78-1.14-3.45-1.69-5.74-4.03-6.89-7.03-1.27-3.47-.93-7.2,1.02-11.17l2.15-4.38,7.9,3.87-2.15,4.38c-.87,1.77-1.1,3.15-.68,4.12.29.86,1.13,1.62,2.52,2.3,1.34.66,2.46.85,3.37.58,1.05-.32,1.99-1.34,2.84-3.06l.6-1.22c1.08-2.2,1.12-4.53.12-6.98-.29-.62-.94-1.65-1.96-3.1-1.83-2.56-3.02-4.51-3.55-5.84-1.99-4.9-1.87-9.65.39-14.24l1.55-3.16c1.95-3.97,4.68-6.53,8.2-7.65,3.07-.93,6.33-.55,9.78,1.14,3.45,1.69,5.74,4.03,6.89,7.03,1.27,3.47.93,7.2-1.02,11.17Zm-2.47-226.34l-20.04-32.16,8.95-2.46,11.03,17.79.54-20.97,8.95-2.46-.86,37.9,5.22,18.98-8.56,2.35-5.22-18.98Zm35.36,275.4l-13.18-1.62c-3.76-.46-6.69-1.95-8.8-4.46-2.35-2.76-3.25-6.36-2.71-10.81l.73-5.96c.55-4.5,2.3-7.8,5.25-9.91.42-.33.88-.62,1.4-.88l-2-25.15,8.89,1.09,1.79,22.87,3.97.49,2.73-22.31,8.73,1.07-6.81,55.59Zm27.43-1.48l-1.77-8.62,14.11-2.9-2.83-13.79-9.72,2-1.77-8.62,9.72-1.99-3.12-15.2-14.11,2.9-1.77-8.62,22.73-4.67,11.27,54.86-22.73,4.67Zm23.35-251.88c-3.1,1.1-6.37.96-9.83-.45-3.56-1.44-6.01-3.62-7.37-6.53-1.51-3.38-1.43-7.11.23-11.21l16.11-39.74,8.16,3.31-16.11,39.74c-.74,1.83-.9,3.2-.47,4.13.4.85,1.32,1.57,2.75,2.15,1.38.56,2.52.67,3.4.34,1.02-.39,1.89-1.48,2.61-3.26l16.11-39.74,8.15,3.31-16.11,39.74c-1.62,4-4.17,6.74-7.65,8.21Zm43.17,226.97l-24.91-29.25,13.46,35.98-7.72,4.54-18.74-53.95,7.59-4.46,38.04,42.59-7.72,4.54Zm25.03-20.33l-40.22-38.96,6.12-6.32,40.22,38.96-6.12,6.32Zm33.14-46.64l-31.3-1.64,24.92,13.46-4.18,7.74-49.27-26.62,2.43-4.51,31.38,1.67-24.99-13.5,4.18-7.74,49.27,26.61-2.43,4.51Zm12.61-41.91l-1.22,8.71-55.46-7.75.71-5.07,29.99-9.38-28.13-3.93,1.22-8.72,55.46,7.75-.71,5.07-29.91,9.39,28.05,3.92Z"/>
    <polygon class="cls-1" points="370 195.92 349.64 196.82 351.16 203.7 370 195.92"/>
  </g>
  <path d="m79.64,217.09l-1-.09-.09,1,1,.09.09-1Zm14.02,1.29l-.09,1,1,.09.09-1-1-.09Zm.9-9.88l.09-1-1-.09-.09,1,1,.09Zm8.76.8l1,.09.09-1-1-.09-.09,1Zm-.9,9.88l-1-.09-.09,1,1,.09.09-1Zm15.46,1.42l-.09,1,1,.09.09-1-.99-.09Zm1.31-14.34l.09-1-1-.09-.09,1,1,.09Zm8.76.8l1,.09.09-1-.99-.09-.09,1Zm-2.12,23.1l-.09,1,1,.09.09-1-1-.09Zm-55.77-5.11l-1-.09-.09,1,1,.09.09-1Zm2.12-23.1l.09-1-1-.09-.09,1,1,.09Zm8.76.8l1,.09.09-1-1-.09-.09.99Zm-1.4,15.34l14.02,1.29.18-1.99-14.02-1.28-.18,1.99Zm15.11.38l.9-9.88-1.99-.18-.9,9.88,1.99.18Zm-.18-8.97l8.76.8.18-1.99-8.76-.8-.18,1.99Zm7.86-.28l-.9,9.88,1.99.18.9-9.88-1.99-.18Zm0,10.96l15.46,1.42.18-1.99-15.46-1.41-.18,1.99Zm16.54.51l1.31-14.34-1.99-.18-1.31,14.34,1.99.18Zm.23-13.43l8.76.8.18-1.99-8.76-.8-.18,1.99Zm7.86-.28l-2.12,23.1,1.99.18,2.12-23.1-1.99-.18Zm-1.03,22.2l-55.77-5.11-.18,1.99,55.77,5.11.18-1.99Zm-54.86-4.02l2.12-23.1-1.99-.18-2.12,23.1,1.99.18Zm1.03-22.2l8.76.8.18-1.99-8.76-.8-.18,1.99Zm7.86-.29l-1.31,14.34,1.99.18,1.31-14.34-1.99-.18Z"/>
</svg>